<?xml version="1.0" encoding="utf-8"?>
<!-- Generator: Adobe Illustrator 14.0.0, SVG Export Plug-In . SVG Version: 6.00 Build 43363)  -->
<!DOCTYPE svg PUBLIC "-//W3C//DTD SVG 1.1//EN" "http://www.w3.org/Graphics/SVG/1.1/DTD/svg11.dtd">
<svg version="1.1" id="Layer_1" xmlns="http://www.w3.org/2000/svg" xmlns:xlink="http://www.w3.org/1999/xlink" x="0px" y="0px"
	 width="198.425px" height="198.425px" viewBox="0 0 198.425 198.425" enable-background="new 0 0 198.425 198.425"
	 xml:space="preserve">
<path fill="#FFFFFF" d="M131.226,130.365h-18.874v-3.503h18.874V130.365z"/>
<path fill="#FFFFFF" d="M-77.352,130.365h-18.874v-3.503h18.874V130.365z"/>
<g enable-background="new    ">
	<path d="M60.211,54.159l-0.042,2.31H49.753L44.335,46.01l-2.016,0.042v7.56l3.15,0.547l-0.042,2.31H30.181l-0.252-1.344
		c1.036-0.784,2.226-1.513,3.57-2.185V31.352l-3.192-0.546l0.042-2.31l15.078-0.336c3.5,0,6.384,0.847,8.652,2.541
		c2.268,1.694,3.402,3.843,3.402,6.446c0,1.625-0.477,3.108-1.428,4.452c-0.952,1.344-2.24,2.408-3.864,3.192l5.544,8.945
		L60.211,54.159z M42.319,41.768c0.672,0.196,1.33,0.294,1.974,0.294c2.856,0,4.284-1.567,4.284-4.704
		c0-2.127-0.588-3.835-1.764-5.124l-4.494,0.631V41.768z"/>
	<path d="M59.257,46.178c0-3.192,1.029-5.803,3.087-7.833c2.058-2.029,4.655-3.045,7.791-3.045c3.164,0,5.768,1.029,7.812,3.087
		c2.043,2.058,3.066,4.711,3.066,7.959s-1.001,5.888-3.003,7.917c-2.002,2.03-4.557,3.045-7.665,3.045
		c-3.164,0-5.803-1.043-7.917-3.129C60.314,52.093,59.257,49.426,59.257,46.178z M71.353,53.024
		c0.783-0.672,1.176-2.729,1.176-6.174c0-4.676-0.882-7.014-2.646-7.014c-0.477,0-0.854,0.099-1.134,0.294
		c-0.672,1.036-1.008,3.136-1.008,6.3c0,4.509,0.91,6.762,2.73,6.762C70.751,53.192,71.045,53.136,71.353,53.024z"/>
	<path d="M89.585,40.34c0,0.616,0.329,1.155,0.987,1.617c0.657,0.462,1.631,1.036,2.919,1.722c1.288,0.687,2.324,1.296,3.108,1.827
		c0.784,0.532,1.484,1.239,2.1,2.121c0.616,0.882,0.924,1.897,0.924,3.045c0,1.988-0.826,3.591-2.478,4.809
		c-1.652,1.219-3.85,1.827-6.594,1.827c-3.165,0-6.23-0.756-9.198-2.268l2.646-6.132c2.408,1.932,4.844,3.443,7.308,4.535
		c0.42-0.363,0.63-0.798,0.63-1.302c0-0.42-0.196-0.825-0.588-1.218c-0.393-0.392-1.638-1.141-3.738-2.247
		c-2.1-1.105-3.549-2.17-4.347-3.192c-0.798-1.021-1.197-2.148-1.197-3.381c0-2.016,0.917-3.653,2.751-4.914
		c1.833-1.26,4.15-1.89,6.951-1.89c2.744,0,5.04,0.477,6.888,1.428l0.084,1.513c0,1.512-0.238,3.023-0.714,4.535h-4.158
		l-1.596-3.905l-0.882-0.084C90.187,39.01,89.585,39.529,89.585,40.34z"/>
	<path d="M124.184,52.772c1.204,0.504,2.212,1.05,3.024,1.639l-0.084,2.058h-11.383V45.002c0-2.8-0.98-4.144-2.939-4.032
		l-1.176,0.21v11.76l2.31,1.471l-0.042,2.058h-13.818l-0.041-1.47c0.951-0.588,2.001-1.092,3.149-1.513V39.836l-3.149-0.798
		L99.95,36.98c2.688-0.951,5.754-1.497,9.197-1.638l2.479,2.562v0.673c1.932-1.4,3.793-2.408,5.586-3.024
		c1.092-0.056,2.254,0.141,3.486,0.588c1.231,0.448,2.226,1.274,2.981,2.479c0.308,0.56,0.476,1.862,0.504,3.905V52.772z"/>
	<path d="M145.073,47.27l-10.457-0.042c0.279,1.513,0.938,2.675,1.974,3.486c1.036,0.813,2.323,1.218,3.864,1.218
		c1.539,0,3.318-0.546,5.334-1.638l1.176,2.604l-6.637,4.032c-0.84,0.168-1.68,0.252-2.52,0.252c-3.191,0-5.831-0.987-7.917-2.961
		s-3.129-4.528-3.129-7.665c0-3.191,1.077-5.865,3.233-8.021s4.774-3.234,7.854-3.234c2.856,0,5.187,0.861,6.993,2.583
		s2.709,4.025,2.709,6.909L145.073,47.27z M137.01,39.123c-1.12,0.756-1.904,2.282-2.353,4.578l5.377-0.379
		c-0.141-1.092-0.483-2.036-1.029-2.835C138.459,39.689,137.794,39.235,137.01,39.123z"/>
	<path d="M164.171,45.422c-2.072-1.792-3.753-2.814-5.04-3.066v9.912c1.96,0.7,3.513,1.414,4.661,2.143l-0.041,2.058h-16.17
		l-0.043-1.47c0.952-0.588,2.002-1.092,3.15-1.513V39.836l-3.15-0.798l-0.084-2.059c2.688-0.951,5.754-1.497,9.199-1.638
		l2.478,3.696l2.94-3.444c0.531-0.168,1.119-0.252,1.764-0.252c1.26,0,2.422,0.329,3.486,0.987c1.063,0.658,1.764,1.547,2.1,2.667
		L164.171,45.422z"/>
</g>
<g enable-background="new    ">
	<path d="M44.496,163.237l-0.04,1.96h-11.8l-0.24-1.28l3.4-1.439v-21.08l-3.08-0.4l0.04-1.96h11.08l0.24,1.28
		c-0.667,0.374-1.8,0.854-3.4,1.439v21L44.496,163.237z"/>
	<path d="M66.011,163.597l-4.44,2.239c-0.56-0.054-1.18-0.387-1.86-1c-0.68-0.612-1.18-1.319-1.5-2.12l-4.44,3.12
		c-2.613,0.026-4.78-0.913-6.5-2.819c-1.72-1.906-2.58-4.286-2.58-7.141c0-2.96,0.98-5.426,2.94-7.399s4.406-2.96,7.34-2.96
		c1.04,0,2.026,0.146,2.96,0.439v-6.88l-3-0.08l-0.4-1.92c1.84-0.746,3.933-1.187,6.28-1.32l1.8,1.641v23.88
		c0,0.56,0.346,0.84,1.04,0.84l1.88-0.28L66.011,163.597z M49.612,155.317c0,1.894,0.446,3.474,1.34,4.74
		c0.893,1.267,2.086,1.899,3.58,1.899c1.013,0,2.146-0.333,3.4-1v-11.12c-1.333-0.906-2.8-1.359-4.4-1.359l-1.28,0.12
		C50.491,150.144,49.612,152.383,49.612,155.317z"/>
	<path d="M70.827,155.117c0,2.267,0.593,4.027,1.78,5.28c1.186,1.254,2.7,1.88,4.54,1.88c1.44,0,3.146-0.453,5.12-1.36l0.72,1.88
		l-6.24,2.96c-3.094,0.16-5.633-0.68-7.62-2.52c-1.987-1.84-2.98-4.24-2.98-7.2c0-2.88,0.926-5.353,2.78-7.42
		c1.853-2.066,4.1-3.1,6.74-3.1c2.24,0,4.086,0.699,5.54,2.1c1.453,1.4,2.166,3.207,2.14,5.42l-2.32,2.24L70.827,155.117z
		 M73.948,148.237c-1.414,0.8-2.36,2.294-2.84,4.479l7.8-0.399c-0.214-1.227-0.78-2.22-1.7-2.98
		C76.287,148.577,75.2,148.21,73.948,148.237z"/>
	<path d="M104.275,162.317c1.227,0.267,2.174,0.587,2.841,0.96l-0.2,1.92h-9.4l-0.16-1.36l2.24-0.92v-9.399
		c0-2.746-0.84-4.12-2.52-4.12c-1.147,0-2.827,0.707-5.04,2.12v10.84c1.093,0.294,1.92,0.6,2.48,0.92l-0.16,1.92h-9.72l-0.16-1.36
		c0.64-0.346,1.6-0.72,2.88-1.12v-13.8l-3-0.04l-0.4-1.92c1.84-0.746,3.933-1.186,6.28-1.319l1.8,1.68v2.28
		c3.253-2.32,5.733-3.627,7.44-3.92c0.799,0.106,1.606,0.413,2.42,0.92c0.813,0.507,1.433,1.119,1.859,1.84
		c0.32,0.587,0.493,1.8,0.52,3.64V162.317z"/>
	<path d="M115.435,161.917c0.721,0,1.894-0.253,3.521-0.76l0.521,1.92l-5.641,2.76c-1.066,0.054-2.08-0.319-3.04-1.12
		c-0.96-0.8-1.44-1.68-1.44-2.64v-12.2l-2.6,0.04l-0.24-2c1.094-0.613,2.106-1.08,3.041-1.399l1.76-5.12h2.32l0.319,5h5.601
		l0.119,1.439l-1.92,2.12h-3.72v9.92c0,0.747,0.101,1.274,0.3,1.58C114.535,161.763,114.902,161.917,115.435,161.917z"/>
	<path d="M128.907,162.317c1.226,0.214,2.172,0.533,2.84,0.96l-0.16,1.92h-10.24l-0.16-1.36c0.773-0.399,1.787-0.786,3.04-1.159
		v-13.761l-3-0.04l-0.399-1.92c1.84-0.746,3.933-1.186,6.279-1.319l1.801,1.6V162.317z M126.786,142.557
		c-1.467-0.613-2.68-1.547-3.64-2.801c0.8-1.6,1.786-2.813,2.96-3.64c1.36,0.614,2.52,1.6,3.48,2.96
		C128.974,140.571,128.04,141.731,126.786,142.557z"/>
	<path d="M140.37,161.917c0.721,0,1.893-0.253,3.52-0.76l0.521,1.92l-5.64,2.76c-1.067,0.054-2.08-0.319-3.041-1.12
		c-0.959-0.8-1.439-1.68-1.439-2.64v-12.2l-2.6,0.04l-0.24-2c1.094-0.613,2.105-1.08,3.04-1.399l1.76-5.12h2.32l0.319,5h5.601
		l0.12,1.439l-1.92,2.12h-3.721v9.92c0,0.747,0.101,1.274,0.301,1.58C139.47,161.763,139.837,161.917,140.37,161.917z"/>
	<path d="M167.13,147.957l-2.36,0.96c-1.706,5.761-3.2,10.32-4.479,13.681c-1.014,2.453-2.301,4.605-3.86,6.46
		c-1.56,1.853-3.567,3.486-6.021,4.899l-2.52-4.399c3.359-1.2,5.946-2.654,7.76-4.36c-0.986-0.32-1.84-0.746-2.56-1.28l-5.4-14.88
		l-2.44-0.68l0.041-2.04h9.479l0.2,1.64l-2.2,0.92l2.681,8.4l0.56,4.04h0.72c1.254-3.573,2.36-7.733,3.32-12.48l-2.24-0.479
		l0.04-2.04h9.08L167.13,147.957z"/>
</g>
<g enable-background="new    ">
	<path fill="#871A82" d="M82.557,98.426c0-2.39,0.677-4.331,2.032-5.824c1.354-1.493,3.088-2.24,5.2-2.24
		c2.09,0,3.787,0.769,5.088,2.305c1.301,1.535,1.952,3.52,1.952,5.951c0,2.411-0.64,4.348-1.92,5.809
		c-1.28,1.461-2.966,2.191-5.056,2.191c-2.112,0-3.856-0.768-5.232-2.304S82.557,100.816,82.557,98.426z M91.741,104.314
		c1.386-0.917,2.08-2.698,2.08-5.344c0-1.898-0.352-3.478-1.056-4.736c-0.704-1.259-1.782-1.888-3.232-1.888
		c-0.96,0-1.771,0.234-2.432,0.704c-1.003,1.194-1.504,2.869-1.504,5.023c0,1.835,0.389,3.371,1.168,4.608
		c0.778,1.237,1.925,1.855,3.44,1.855C90.695,104.538,91.207,104.463,91.741,104.314z"/>
	<path fill="#871A82" d="M113.628,103.93c1.088,0.149,1.835,0.32,2.24,0.512l-0.191,1.536h-6.561l-0.16-1.056l1.824-0.704v-7.712
		c0-2.305-0.683-3.456-2.048-3.456c-1.237,0-2.901,0.8-4.992,2.399v8.513c0.896,0.106,1.589,0.267,2.08,0.479l-0.192,1.536h-6.848
		l-0.16-1.056l2.272-0.832V92.794l-2.4,0.191l-0.384-1.504c1.429-0.618,2.88-0.949,4.352-0.992l1.28,1.12v2.112
		c3.2-2.154,5.376-3.232,6.528-3.232c0.618,0.107,1.242,0.422,1.872,0.944c0.629,0.522,1.034,1.062,1.216,1.616
		s0.271,1.589,0.271,3.104V103.93z"/>
</g>
<path fill="#871A82" d="M193.339,193.339H5.086V5.086h188.253V193.339L193.339,193.339z M9.086,189.339h180.253V9.086H9.086V189.339
	L9.086,189.339z"/>
</svg>
