<?xml version="1.0" encoding="utf-8"?>
<!-- Generator: Adobe Illustrator 14.0.0, SVG Export Plug-In . SVG Version: 6.00 Build 43363)  -->
<!DOCTYPE svg PUBLIC "-//W3C//DTD SVG 1.1//EN" "http://www.w3.org/Graphics/SVG/1.1/DTD/svg11.dtd">
<svg version="1.1" id="Layer_1" xmlns="http://www.w3.org/2000/svg" xmlns:xlink="http://www.w3.org/1999/xlink" x="0px" y="0px"
	 width="500px" height="500px" viewBox="0 0 500 500" enable-background="new 0 0 500 500" xml:space="preserve">
<path fill="#261E66" d="M250,0C111.929,0,0,111.929,0,250c0,138.071,111.929,250,250,250s250-111.929,250-250
	C500,111.929,388.071,0,250,0z M352.5,433.885v-83.563c0-15.655-12.691-28.347-28.347-28.347h-38.108
	C312.4,308.75,330.5,281.497,330.5,250c0-44.459-36.041-80.5-80.5-80.5c-44.458,0-80.5,36.041-80.5,80.5
	c0,31.497,18.1,58.75,44.456,71.976h-33.109c-15.655,0-28.347,12.691-28.347,28.347v86.269C85.336,401.423,39.5,331.069,39.5,250
	c0-116.256,94.244-210.5,210.5-210.5S460.5,133.744,460.5,250C460.5,329.041,416.927,397.895,352.5,433.885z"/>
</svg>
